<?xml version="1.0" encoding="UTF-8"?>
<svg version="1.1" xmlns="http://www.w3.org/2000/svg" width="256" height="251">
<path d="M0 0 C0.65774866 -0.00438225 1.31549733 -0.00876451 1.99317777 -0.01327956 C4.20162134 -0.02665528 6.41002502 -0.03284369 8.61849976 -0.03897095 C10.20038025 -0.04687302 11.78225894 -0.05514204 13.36413574 -0.06375122 C18.56397787 -0.08996395 23.76382801 -0.1052803 28.9637146 -0.11953735 C30.7549172 -0.12489776 32.54611974 -0.13027527 34.33732224 -0.13566971 C41.79029709 -0.15729928 49.24326978 -0.17603451 56.69626808 -0.1872921 C67.36976944 -0.20352104 78.04290618 -0.23667218 88.71627009 -0.29369295 C96.22468938 -0.33243427 103.73301132 -0.35192987 111.24152792 -0.35721266 C115.7238637 -0.36086101 120.20581051 -0.37282669 124.68803787 -0.4053154 C128.90871433 -0.43546923 133.12876797 -0.44168206 137.34952927 -0.42993164 C138.89383012 -0.4297115 140.43816048 -0.43796722 141.98236084 -0.45558548 C152.97473157 -0.57411563 160.03511398 0.97279027 168.2996521 8.40390015 C174.83322415 15.34771975 177.67715775 22.39655104 177.66990662 31.82302856 C177.67118825 32.82658367 177.67118825 32.82658367 177.67249578 33.85041261 C177.67414195 36.09059982 177.66864335 38.33071203 177.66317749 40.57089233 C177.66289541 42.17737323 177.66305377 43.78385426 177.66362 45.39033508 C177.66390714 49.75154065 177.65802373 54.11271877 177.65104604 58.47391796 C177.64479878 63.03165231 177.64420761 67.58938727 177.64302063 72.14712524 C177.63991137 80.77786934 177.63170343 89.40860078 177.62167114 98.0393393 C177.61049744 107.86512005 177.60499638 117.6909014 177.59997571 127.51668692 C177.58952049 147.72909996 177.57118003 167.94149565 177.5496521 188.15390015 C193.0596521 188.15390015 208.5696521 188.15390015 224.5496521 188.15390015 C224.6321521 194.21765015 224.7146521 200.28140015 224.7996521 206.52890015 C224.83606812 208.42172729 224.87248413 210.31455444 224.91000366 212.26473999 C225.04063053 223.87245154 223.82608358 232.94388548 216.4012146 242.3296814 C210.7275602 247.91954765 204.07174062 251.2707549 196.21955872 251.30780029 C195.23421736 251.31437367 195.23421736 251.31437367 194.22897011 251.32107985 C192.0174205 251.3344844 189.80591076 251.3406505 187.59432983 251.34677124 C186.01259683 251.35467117 184.43086564 251.36294005 182.84913635 251.37155151 C177.64385708 251.39779341 172.43856969 251.41308546 167.23324585 251.42733765 C165.44111692 251.43269722 163.64898803 251.43807473 161.85685921 251.44347 C154.39963573 251.46510561 146.94241444 251.48384048 139.4851675 251.49509239 C128.80207191 251.51131751 118.11934087 251.54445241 107.43638271 251.60149324 C99.92373733 251.64023573 92.41118926 251.65973042 84.89844662 251.66501296 C80.41274263 251.66866172 75.92742727 251.68063141 71.44183159 251.71311569 C67.21706468 251.7432708 62.99291999 251.74948189 58.76806831 251.73773193 C57.22215578 251.73751179 55.67621377 251.74576777 54.13040161 251.76338577 C43.88534624 251.8737398 37.18642138 250.58721476 29.06137085 244.1968689 C17.76531065 232.70730017 17.24233724 220.19237413 17.32260132 204.69833374 C17.32316646 203.15993253 17.32284686 201.62153078 17.32171631 200.08312988 C17.32114581 195.93504594 17.33285069 191.78707921 17.34686422 187.63902235 C17.35942244 183.29353407 17.36054608 178.94804269 17.36291504 174.60253906 C17.36911491 166.38634195 17.3855054 158.17019848 17.40561402 149.95402491 C17.42801965 140.59484925 17.43897815 131.23567093 17.44900489 121.8764751 C17.46987305 102.63558025 17.5065305 83.39475888 17.5496521 64.15390015 C2.3696521 63.82390015 -12.8103479 63.49390015 -28.4503479 63.15390015 C-28.5328479 56.90452515 -28.6153479 50.65515015 -28.7003479 44.21640015 C-28.73676392 42.26226196 -28.77317993 40.30812378 -28.81069946 38.29476929 C-28.82239948 36.71787611 -28.83258818 35.14097069 -28.8409729 33.5640564 C-28.86143677 32.76802002 -28.88190063 31.97198364 -28.90298462 31.15182495 C-28.90861804 21.93695252 -24.7854596 13.76686763 -18.4503479 7.15390015 C-12.37878469 2.37150446 -7.80361056 0.036845 0 0 Z M35.5496521 16.15390015 C35.47957956 42.76166606 35.42667248 69.36941814 35.39421558 95.97725773 C35.37874491 108.33166144 35.35765148 120.68600783 35.32333374 133.04037476 C35.29343762 143.80809185 35.27407855 154.57576743 35.26738662 165.34352487 C35.26347474 171.04527738 35.25427696 176.74691111 35.23246193 182.44862556 C35.21209353 187.81574476 35.20581907 193.18269629 35.21032906 198.54985046 C35.20950402 200.51907703 35.20354054 202.48830923 35.19203568 204.45750237 C35.17708611 207.14838221 35.18070752 209.83863097 35.18888855 212.52952576 C35.18015003 213.30678027 35.1714115 214.08403478 35.16240817 214.88484246 C35.21070841 220.77188991 36.45831317 225.3192206 40.02230835 230.1499939 C43.43315649 233.24238447 45.95391524 234.57545305 50.6121521 234.77890015 C55.24861633 234.46933349 58.04525802 233.32454241 61.5496521 230.15390015 C68.87785328 220.36344881 68.87785328 220.36344881 65.5496521 188.15390015 C96.5696521 188.15390015 127.5896521 188.15390015 159.5496521 188.15390015 C159.63703216 159.66074855 159.63703216 159.66074855 159.69613647 131.16757202 C159.71394881 119.55091385 159.73490747 107.93432087 159.77597046 96.31771851 C159.80585999 87.85802798 159.82522406 79.39839026 159.83191758 70.9386484 C159.8358306 66.45873044 159.84503542 61.97896357 159.86684227 57.49909401 C159.88720037 53.28269669 159.89348728 49.06651275 159.88897514 44.85007095 C159.88980065 43.30249179 159.89577041 41.75490552 159.90726852 40.20736885 C159.92220251 38.093769 159.91860303 35.98097395 159.91041565 33.86735535 C159.91318103 32.68469495 159.91594641 31.50203455 159.91879559 30.28353596 C159.35266903 25.48385772 157.23277707 22.91568268 154.06451416 19.38261414 C149.67185785 15.94622597 144.65993495 16.45069933 139.31185913 16.49447632 C138.18932236 16.48399261 137.06678558 16.47350891 135.91023254 16.46270752 C132.20902852 16.43396334 128.50876023 16.44024886 124.8074646 16.4468689 C122.23769966 16.4337536 119.66794504 16.41844991 117.09820557 16.40104675 C111.03157508 16.36523852 104.96526299 16.35146115 98.89853942 16.34842235 C91.98911331 16.3437272 85.07991113 16.31078939 78.17058396 16.2755245 C63.96364151 16.20364327 49.75676422 16.16708177 35.5496521 16.15390015 Z M-7.4503479 21.15390015 C-11.47800264 26.709286 -11.58899687 31.72165946 -11.5128479 38.40390015 C-11.4922229 40.96140015 -11.4715979 43.51890015 -11.4503479 46.15390015 C-1.8803479 46.15390015 7.6896521 46.15390015 17.5496521 46.15390015 C17.8796521 36.58390015 18.2096521 27.01390015 18.5496521 17.15390015 C15.3734021 17.07140015 12.1971521 16.98890015 8.9246521 16.90390015 C7.4403772 16.84927612 7.4403772 16.84927612 5.92611694 16.79354858 C0.285309 16.72285319 -3.02009217 17.30638804 -7.4503479 21.15390015 Z M82.5496521 205.15390015 C82.2196521 213.07390015 81.8896521 220.99390015 81.5496521 229.15390015 C81.2196521 230.80390015 80.8896521 232.45390015 80.5496521 234.15390015 C95.66617612 234.31766462 110.78265914 234.4409796 125.89987183 234.51658535 C132.91966464 234.55262914 139.93890523 234.60173903 146.95834351 234.68197632 C153.73406189 234.75939057 160.50920652 234.79990486 167.28533936 234.81804085 C169.86894758 234.8309632 172.45252484 234.85619803 175.03588867 234.89401054 C178.65835059 234.94491791 182.27845184 234.95181961 185.9012146 234.94857788 C186.9664888 234.97374481 188.031763 234.99891174 189.12931824 235.02484131 C195.81424571 234.96022078 199.29229504 233.6301828 204.11151123 228.95018101 C209.42762376 222.31019783 206.5496521 213.2958113 206.5496521 205.15390015 C165.6296521 205.15390015 124.7096521 205.15390015 82.5496521 205.15390015 Z " fill="#7926C1" transform="translate(29.450347900390625,-0.153900146484375)"/>
<path d="M0 0 C8.32729351 -0.02255403 16.65456344 -0.04091682 24.98187923 -0.05181217 C28.84820118 -0.05704026 32.71450121 -0.06413654 36.58081055 -0.07543945 C40.30903401 -0.086271 44.03723634 -0.0922774 47.76547432 -0.09487724 C49.19089656 -0.09673101 50.61631759 -0.10035071 52.04173088 -0.10573006 C54.03163408 -0.11294393 56.02155834 -0.11340808 58.01147461 -0.11352539 C59.14620712 -0.115746 60.28093964 -0.11796661 61.45005798 -0.12025452 C64 0 64 0 65 1 C65 6.28 65 11.56 65 17 C43.55 17 22.1 17 0 17 C0 11.39 0 5.78 0 0 Z " fill="#7925C0" transform="translate(95,46)"/>
<path d="M0 0 C21.45 0 42.9 0 65 0 C65 5.28 65 10.56 65 16 C63.20903955 17.79096045 60.53667215 17.12766791 58.11914062 17.12939453 C56.2321344 17.13412277 56.2321344 17.13412277 54.30700684 17.13894653 C52.92342087 17.13715675 51.53983522 17.1351058 50.15625 17.1328125 C48.74759911 17.13348559 47.33894834 17.13445565 45.93029785 17.13571167 C42.97451677 17.13718842 40.01876586 17.13503483 37.06298828 17.13037109 C33.26625416 17.12467381 29.46959072 17.12795293 25.67285919 17.13394356 C22.76303572 17.13754979 19.85322912 17.1364103 16.94340515 17.13381577 C15.543106 17.13314667 14.14280533 17.13397432 12.74250793 17.13629532 C10.78862536 17.13882283 8.83473745 17.13429033 6.88085938 17.12939453 C5.76690796 17.12859894 4.65295654 17.12780334 3.50524902 17.12698364 C1 17 1 17 0 16 C0 10.72 0 5.44 0 0 Z " fill="#7925C0" transform="translate(95,141)"/>
<path d="M0 0 C1.88700623 -0.00472824 1.88700623 -0.00472824 3.81213379 -0.009552 C5.19571975 -0.00776222 6.5793054 -0.00571127 7.96289062 -0.00341797 C9.37154151 -0.00409106 10.78019229 -0.00506112 12.18884277 -0.00631714 C15.14462385 -0.00779389 18.10037476 -0.0056403 21.05615234 -0.00097656 C24.85288647 0.00472073 28.64954991 0.0014416 32.44628143 -0.00454903 C35.35610491 -0.00815526 38.2659115 -0.00701577 41.17573547 -0.00442123 C42.57603463 -0.00375214 43.9763353 -0.00457979 45.37663269 -0.00690079 C47.33051526 -0.00942829 49.28440318 -0.0048958 51.23828125 0 C52.35223267 0.00079559 53.46618408 0.00159119 54.6138916 0.00241089 C57.11914062 0.12939453 57.11914062 0.12939453 58.11914062 1.12939453 C58.11914062 6.40939453 58.11914062 11.68939453 58.11914062 17.12939453 C36.66914063 17.12939453 15.21914062 17.12939453 -6.88085938 17.12939453 C-6.88085938 0.00491437 -6.88085938 0.00491437 0 0 Z " fill="#7925C0" transform="translate(101.880859375,92.87060546875)"/>
</svg>
