<svg xmlns="http://www.w3.org/2000/svg" version="1.1" xmlns:xlink="http://www.w3.org/1999/xlink" xmlns:svgjs="http://svgjs.dev/svgjs" width="1000" height="1000" viewBox="0 0 1000 1000"><rect width="1000" height="1000" fill="#000000"></rect><g transform="matrix(0.7,0,0,0.7,149.57575757575756,404.76165646205936)"><svg viewBox="0 0 396 108" data-background-color="#ffffff" preserveAspectRatio="xMidYMid meet" height="272" width="1000" xmlns="http://www.w3.org/2000/svg" xmlns:xlink="http://www.w3.org/1999/xlink"><g id="tight-bounds" transform="matrix(1,0,0,1,0.2400000000000091,0.021749485806680013)"><svg viewBox="0 0 395.52 107.95650102838663" height="107.95650102838663" width="395.52"><g><svg viewBox="0 0 395.52 107.95650102838663" height="107.95650102838663" width="395.52"><g><svg viewBox="0 0 395.52 107.95650102838663" height="107.95650102838663" width="395.52"><g><svg viewBox="0 0 581.282767520643 158.66012765378673" height="107.95650102838663" width="395.52"><g transform="matrix(1,0,0,1,185.762767520643,21.9277021576507)"><svg viewBox="0 0 395.52 114.80472333848533" height="114.80472333848533" width="395.52"><g id="textblocktransform"><svg viewBox="0 0 395.52 114.80472333848533" height="114.80472333848533" width="395.52" id="textblock"><g><svg viewBox="0 0 395.52 114.80472333848533" height="114.80472333848533" width="395.52"><g transform="matrix(1,0,0,1,0,0)"><svg width="395.52" viewBox="4.150000095367432 -36.95000076293945 161.73001098632812 46.95000076293945" height="114.80472333848533" data-palette-color="#7a26c1"><path d="M8.15-15L8.15 0 4.15 0 4.15-34.9 17-34.9Q25.65-34.9 25.65-24.95L25.65-24.95Q25.65-16.55 19.45-15.25L19.45-15.25 26.5 0 22 0 15.45-15 8.15-15ZM8.15-18.4L16.9-18.4Q21.35-18.4 21.35-23.2L21.35-23.2 21.35-26.6Q21.35-31.4 16.9-31.4L16.9-31.4 8.15-31.4 8.15-18.4ZM41.1 0.6L41.1 0.6Q38.85 0.6 36.9-0.15 34.95-0.9 33.55-2.55 32.15-4.2 31.35-6.75 30.55-9.3 30.55-12.9L30.55-12.9Q30.55-16.5 31.35-19.05 32.15-21.6 33.55-23.25 34.95-24.9 36.9-25.65 38.85-26.4 41.1-26.4L41.1-26.4Q43.35-26.4 45.22-25.65 47.1-24.9 48.4-23.25 49.7-21.6 50.42-19.05 51.15-16.5 51.15-12.9L51.15-12.9 51.15-11.95 34.6-11.95 34.6-10.3Q34.6-6.5 36.32-4.63 38.05-2.75 41.1-2.75L41.1-2.75Q43.7-2.75 45.35-3.88 47-5 47.95-7.25L47.95-7.25 50.55-5.35Q49.35-2.7 47.02-1.05 44.7 0.6 41.1 0.6ZM41.1-23.2L41.1-23.2Q38-23.2 36.3-21.25 34.6-19.3 34.6-15.5L34.6-15.5 34.6-14.85 47.1-14.85 47.1-15.5Q47.1-23.2 41.1-23.2ZM64.2 0.6L64.2 0.6Q61 0.6 58.72-0.7 56.45-2 54.85-4.3L54.85-4.3 57.5-6.5Q58.85-4.6 60.42-3.6 62-2.6 64.2-2.6L64.2-2.6Q66.45-2.6 67.77-3.73 69.09-4.85 69.09-6.95L69.09-6.95Q69.09-8.65 68.25-9.7 67.4-10.75 65.09-11.15L65.09-11.15 63.15-11.5Q59.4-12.2 57.57-13.85 55.75-15.5 55.75-18.85L55.75-18.85Q55.75-20.8 56.35-22.23 56.95-23.65 58.05-24.58 59.15-25.5 60.67-25.93 62.2-26.35 64-26.35L64-26.35Q66.9-26.35 68.87-25.33 70.84-24.3 72.3-22.35L72.3-22.35 69.84-20.1Q69-21.3 67.59-22.23 66.2-23.15 64-23.15L64-23.15Q59.45-23.15 59.45-19L59.45-19Q59.45-17.1 60.42-16.23 61.4-15.35 63.6-14.95L63.6-14.95 65.55-14.6Q69.5-13.9 71.15-12.15 72.8-10.4 72.8-7.4L72.8-7.4Q72.8-3.65 70.62-1.53 68.45 0.6 64.2 0.6ZM87.49 0.6L87.49 0.6Q82.69 0.6 79.97-2.55 77.24-5.7 77.24-12.9L77.24-12.9Q77.24-20.1 79.97-23.25 82.69-26.4 87.49-26.4L87.49-26.4Q91.14-26.4 93.32-24.73 95.49-23.05 96.49-20.45L96.49-20.45 93.34-18.85Q92.69-20.85 91.29-21.93 89.89-23 87.49-23L87.49-23Q84.34-23 82.84-21.15 81.34-19.3 81.34-15.5L81.34-15.5 81.34-10.3Q81.34-6.5 82.84-4.65 84.34-2.8 87.49-2.8L87.49-2.8Q89.99-2.8 91.52-3.9 93.04-5 93.94-7.25L93.94-7.25 96.74-5.3Q95.59-2.6 93.27-1 90.94 0.6 87.49 0.6ZM105.49 0L101.69 0 101.69-25.8 105.49-25.8 105.49-21 105.99-21Q106.64-23.25 108.22-24.53 109.79-25.8 112.34-25.8L112.34-25.8 113.74-25.8 113.74-21.95 111.24-21.95Q108.54-21.95 107.02-20.75 105.49-19.55 105.49-17.15L105.49-17.15 105.49 0ZM120.19-32.05L120.19-32.05Q117.84-32.05 117.84-34.1L117.84-34.1 117.84-34.9Q117.84-36.95 120.19-36.95L120.19-36.95Q122.54-36.95 122.54-34.9L122.54-34.9 122.54-34.1Q122.54-32.05 120.19-32.05ZM118.29 0L118.29-25.8 122.09-25.8 122.09 0 118.29 0ZM129.69 10L129.69-25.8 133.49-25.8 133.49-21.6 133.99-21.6Q134.74-24.15 136.41-25.28 138.09-26.4 140.49-26.4L140.49-26.4Q142.79-26.4 144.54-25.45 146.29-24.5 147.49-22.75 148.69-21 149.29-18.5 149.89-16 149.89-12.9L149.89-12.9Q149.89-9.8 149.29-7.3 148.69-4.8 147.49-3.05 146.29-1.3 144.54-0.35 142.79 0.6 140.49 0.6L140.49 0.6Q138.09 0.6 136.41-0.53 134.74-1.65 133.99-4.2L133.99-4.2 133.49-4.2 133.49 10 129.69 10ZM139.34-2.8L139.34-2.8Q142.49-2.8 144.14-4.78 145.79-6.75 145.79-10.3L145.79-10.3 145.79-15.5Q145.79-19.05 144.14-21.03 142.49-23 139.34-23L139.34-23Q138.14-23 137.06-22.65 135.99-22.3 135.21-21.65 134.44-21 133.96-20.1 133.49-19.2 133.49-18.1L133.49-18.1 133.49-7.7Q133.49-6.6 133.96-5.7 134.44-4.8 135.21-4.15 135.99-3.5 137.06-3.15 138.14-2.8 139.34-2.8ZM165.63 0L160.98 0Q158.93 0 158.01-0.93 157.08-1.85 157.08-3.9L157.08-3.9 157.08-22.45 153.28-22.45 153.28-25.8 155.53-25.8Q156.68-25.8 157.06-26.38 157.43-26.95 157.43-28.1L157.43-28.1 157.43-32.9 160.88-32.9 160.88-25.8 165.88-25.8 165.88-22.45 160.88-22.45 160.88-3.35 165.63-3.35 165.63 0Z" opacity="1" transform="matrix(1,0,0,1,0,0)" fill="#ffffff" class="wordmark-text-0" data-fill-palette-color="primary" id="text-0"></path></svg></g></svg></g></svg></g></svg></g><g><svg viewBox="0 0 158.66012765378673 158.66012765378673" height="158.66012765378673" width="158.66012765378673"><g><svg xmlns="http://www.w3.org/2000/svg" xmlns:xlink="http://www.w3.org/1999/xlink" version="1.1" x="0" y="0" viewBox="0 0 32 32" enable-background="new 0 0 32 32" xml:space="preserve" height="158.66012765378673" width="158.66012765378673" class="icon-icon-0" data-fill-palette-color="accent" id="icon-0"><g display="none" fill="#7a26c1" data-fill-palette-color="accent"><path display="inline" d="M26 0.226H6c-3.309 0-6 2.691-6 6v16c0 3.309 2.691 6 6 6h8v3.549l5.266-1.754 5.383-1.795H26c3.309 0 6-2.691 6-6v-16C32 2.917 29.309 0.226 26 0.226zM28 22.226c0 1.104-0.895 2-2 2h-2l-6 2v-2H6c-1.104 0-2-0.896-2-2v-16c0-1.105 0.896-2 2-2h20c1.105 0 2 0.895 2 2V22.226z" fill="#ffffff" data-fill-palette-color="accent"></path></g><g fill="#7a26c1" data-fill-palette-color="accent"><path d="M12 20h8v-2h-8V20zM26 24V4c0-2.209-1.791-4-4-4H4C1.791 0 0 1.791 0 4v4h6v20c0 2.209 1.791 4 4 4h18c2.209 0 4-1.791 4-4v-4H26zM6 6H2V4c0-1.102 0.898-2 2-2h2V6zM12 28c0 1.103-0.897 2-2 2-1.102 0-2-0.897-2-2V8h0.002V6H8V2h14c1.103 0 2 0.898 2 2v20H12V28zM30 28c0 1.103-0.897 2-2 2H13.445C13.789 29.409 14 28.732 14 28v-2h16V28zM12 8h8V6h-8V8zM12 14h8v-2h-8V14z" fill="#ffffff" data-fill-palette-color="accent"></path></g></svg></g></svg></g></svg></g></svg></g></svg></g><defs></defs></svg><rect width="395.52" height="107.95650102838663" fill="none" stroke="none" visibility="hidden"></rect></g></svg></g></svg>